<svg xmlns="http://www.w3.org/2000/svg" width="430" height="430" style="width:100%;height:100%;transform:translate3d(0,0,0);content-visibility:visible" viewBox="0 0 430 430"><defs><filter id="a" width="100%" height="100%" x="0%" y="0%" filterUnits="objectBoundingBox"><feComponentTransfer in="SourceGraphic"><feFuncA tableValues="1.0 0.0" type="table"/></feComponentTransfer></filter><filter id="c" width="100%" height="100%" x="0%" y="0%" filterUnits="objectBoundingBox"><feComponentTransfer in="SourceGraphic"><feFuncA tableValues="1.0 0.0" type="table"/></feComponentTransfer></filter><filter id="e" width="100%" height="100%" x="0%" y="0%" filterUnits="objectBoundingBox"><feComponentTransfer in="SourceGraphic"><feFuncA tableValues="1.0 0.0" type="table"/></feComponentTransfer></filter><filter id="g" width="100%" height="100%" x="0%" y="0%" filterUnits="objectBoundingBox"><feComponentTransfer in="SourceGraphic"><feFuncA tableValues="1.0 0.0" type="table"/></feComponentTransfer></filter><filter id="i" width="100%" height="100%" x="0%" y="0%" filterUnits="objectBoundingBox"><feComponentTransfer in="SourceGraphic"><feFuncA tableValues="1.0 0.0" type="table"/></feComponentTransfer></filter><filter id="k" width="100%" height="100%" x="0%" y="0%" filterUnits="objectBoundingBox"><feComponentTransfer in="SourceGraphic"><feFuncA tableValues="1.0 0.0" type="table"/></feComponentTransfer></filter><path id="l" fill="red" d="M373.469 182.594c-.017 0-.031 27.982-.031 62.5s.014 62.5.031 62.5.031-27.982.031-62.5-.014-62.5-.031-62.5z" style="display:block"/><path id="b" style="display:none"/><path id="d" fill="red" d="M373.469 182.594c-.017 0-.031 27.982-.031 62.5s.014 62.5.031 62.5.031-27.982.031-62.5-.014-62.5-.031-62.5z" style="display:block"/><path id="f" fill="red" d="M373.469 182.594c-.017 0-.031 27.982-.031 62.5s.014 62.5.031 62.5.031-27.982.031-62.5-.014-62.5-.031-62.5z" style="display:block"/><path id="j" fill="red" d="M249.5 180.75s-.75.009.098.009c27.209 0 49.267-22.058 49.267-49.267 0-27.209-22.058-49.267-49.267-49.267-.598 0 .027.025.027.025m.063 0c-27.166 0-49.188 22.021-49.188 49.187 0 27.166 22.022 49.188 49.188 49.188 27.166 0 49.187-22.022 49.187-49.188 0-27.166-22.021-49.187-49.187-49.187z" style="display:block"/><path id="h" fill="red" d="M373.469 182.594c-.017 0-.031 27.982-.031 62.5s.014 62.5.031 62.5.031-27.982.031-62.5-.014-62.5-.031-62.5z" style="display:block"/><mask id="u" mask-type="alpha"><g filter="url(#a)"><path fill="#fff" d="M0 0h430v430H0z" opacity="0"/><use xmlns:ns1="http://www.w3.org/1999/xlink" ns1:href="#b"/></g></mask><mask id="t" mask-type="alpha"><g filter="url(#c)"><path fill="#fff" d="M0 0h430v430H0z" opacity="0"/><use xmlns:ns2="http://www.w3.org/1999/xlink" ns2:href="#d"/></g></mask><mask id="s" mask-type="alpha"><g filter="url(#e)"><path fill="#fff" d="M0 0h430v430H0z" opacity="0"/><use xmlns:ns3="http://www.w3.org/1999/xlink" ns3:href="#f"/></g></mask><mask id="p" mask-type="alpha"><g filter="url(#g)"><path fill="#fff" d="M0 0h430v430H0z" opacity="0"/><use xmlns:ns4="http://www.w3.org/1999/xlink" ns4:href="#h"/></g></mask><mask id="q" mask-type="alpha"><g filter="url(#i)"><path fill="#fff" d="M0 0h430v430H0z" opacity="0"/><use xmlns:ns5="http://www.w3.org/1999/xlink" ns5:href="#j"/></g></mask><mask id="r" mask-type="alpha"><g filter="url(#k)"><path fill="#fff" d="M0 0h430v430H0z" opacity="0"/><use xmlns:ns6="http://www.w3.org/1999/xlink" ns6:href="#l"/></g></mask><clipPath id="m"><path d="M0 0h430v430H0z"/></clipPath><clipPath id="n"><path d="M0 0h430v430H0z"/></clipPath><clipPath id="o"><path d="M0 0h430v430H0z"/></clipPath></defs><g clip-path="url(#m)"><g clip-path="url(#n)" style="display:block"><g clip-path="url(#o)" style="display:block"><g mask="url(#p)" style="display:block"><path fill="none" stroke="#121331" stroke-linecap="round" stroke-linejoin="round" stroke-width="12" d="m54.903 198.941 44.5-.055m0 29.451-44.5.055m-.13-40.003v50.666" class="primary"/></g><g mask="url(#q)" style="display:block"><path fill="none" stroke="#121331" stroke-linecap="round" stroke-linejoin="round" stroke-width="12" d="M150.5 180.75s-.75.009.098.009c27.209 0 49.267-22.058 49.267-49.267 0-27.209-22.058-49.267-49.267-49.267-.598 0 .027.025.027.025" class="primary"/></g><path fill="none" stroke="#121331" stroke-linecap="round" stroke-linejoin="round" stroke-width="12" d="M0-49.267s0 0 0 0c-27.209 0-49.267 22.058-49.267 49.267 0 27.209 22.058 49.267 49.267 49.267 0 0 0 0 0 0" class="primary" style="display:block" transform="translate(150.598 131.492)"/><path fill="none" stroke="#08A88A" stroke-linecap="round" stroke-linejoin="round" stroke-width="12" d="M15.991 0c0-8.832-7.159-15.991-15.991-15.991S-15.991-8.832-15.991 0-8.832 15.991 0 15.991 15.991 8.832 15.991 0z" class="secondary" style="display:block" transform="translate(150.598 131.492)"/><path fill="none" stroke="#121331" stroke-linecap="round" stroke-linejoin="round" stroke-width="12" d="M0 49.267s0 0 0 0c27.209 0 49.267-22.058 49.267-49.267 0 0 0 0 0 0 0-27.209-22.058-49.267-49.267-49.267 0 0 0 0 0 0" class="primary" style="display:block" transform="translate(150.598 131.492)"/><path fill="none" stroke="#121331" stroke-linecap="round" stroke-linejoin="round" stroke-width="12" d="M-.098 49.258s-.75.009.098.009c27.209 0 49.267-22.058 49.267-49.267 0-27.209-22.058-49.267-49.267-49.267-.598 0 .027.025.027.025" class="primary" style="display:block" transform="translate(249.598 131.492)"/><path fill="none" stroke="#121331" stroke-linecap="round" stroke-linejoin="round" stroke-width="12" d="M0-49.267s0 0 0 0c-27.209 0-49.267 22.058-49.267 49.267 0 27.209 22.058 49.267 49.267 49.267 0 0 0 0 0 0" class="primary" style="display:block" transform="translate(249.598 131.492)"/><path fill="none" stroke="#08A88A" stroke-linecap="round" stroke-linejoin="round" stroke-width="12" d="M15.991 0c0-8.832-7.159-15.991-15.991-15.991S-15.991-8.832-15.991 0-8.832 15.991 0 15.991 15.991 8.832 15.991 0z" class="secondary" style="display:block" transform="translate(249.598 131.492)"/><path fill="none" stroke="#121331" stroke-linecap="round" stroke-linejoin="round" stroke-width="12" d="M0 49.267s0 0 0 0c27.209 0 49.267-22.058 49.267-49.267 0 0 0 0 0 0 0-27.209-22.058-49.267-49.267-49.267 0 0 0 0 0 0" class="primary" style="display:block" transform="translate(249.598 131.492)"/><path fill="none" class="secondary" style="display:none"/><g mask="url(#r)" style="display:block"><path fill="none" stroke="#121331" stroke-linecap="round" stroke-linejoin="round" stroke-width="12" d="M281.319 307.216H112.817c-6.6 0-12-5.4-12-12V194.892c0-6.6 5.4-12 12-12h168.502c6.6 0 12 5.4 12 12v100.324c0 6.6-5.4 12-12 12z" class="primary"/></g><g mask="url(#s)" style="display:block"><path fill="none" stroke="#08A88A" stroke-linecap="round" stroke-linejoin="round" stroke-width="18" d="M134.869 263.141h.144" class="secondary"/></g><g mask="url(#t)" style="display:block"><path fill="none" stroke="#121331" stroke-linecap="round" stroke-linejoin="round" stroke-width="12" d="M210.639 263.141h55.484v-55.484h-55.484v55.484z" class="primary"/></g><g mask="url(#u)" style="display:none"><path fill="none" class="primary"/></g><path fill="none" stroke="#121331" stroke-linecap="round" stroke-linejoin="round" stroke-width="12" d="m293.308 218.693 80.161-36.109m-80.161 88.838 80.161 36.102m0-124.93c-.017 0-.031 27.982-.031 62.5s.014 62.5.031 62.5.031-27.982.031-62.5-.014-62.5-.031-62.5zm-80.161 88.593c-.005 0-.008-11.638-.008-25.996 0-14.358.003-25.997.008-25.997" class="primary" style="display:block"/><path fill="none" stroke="#121331" stroke-linecap="round" stroke-linejoin="round" stroke-width="12" d="M252.03 360.515H161v-40.03h91.03v40.03z" class="primary" style="display:block" transform="translate(-10 -13)"/></g></g></g></svg>